<svg xmlns="http://www.w3.org/2000/svg" width="9" height="10"><defs><filter id="filter" x="967" y="316" width="9" height="10" filterUnits="userSpaceOnUse"><feFlood result="flood" flood-color="#f60"/><feComposite result="composite" operator="in" in2="SourceGraphic"/><feBlend result="blend" in2="SourceGraphic"/></filter></defs><path id="angle_right" d="M975.907 320.768l-4.338-4.66a.279.279 0 00-.428 0l-.465.5a.331.331 0 000 .46l3.658 3.93-3.658 3.931a.322.322 0 00-.093.23.325.325 0 00.093.23l.465.5a.279.279 0 00.428 0l4.338-4.661A.326.326 0 00976 321a.33.33 0 00-.093-.23zm0 0l-3.482.23a.325.325 0 00-.093-.23l-4.332-4.66a.279.279 0 00-.428 0l-.466.5a.331.331 0 000 .46l3.658 3.93-3.658 3.931a.331.331 0 00-.093.23.334.334 0 00.093.23l.466.5a.279.279 0 00.428 0l4.337-4.661a.322.322 0 00.093-.23zm0 0" transform="translate(-967 -316)" fill="#727272" fill-rule="evenodd" filter="url(#filter)"/></svg>